<?xml version="1.0" encoding="UTF-8"?>
<!-- Generator: Adobe Illustrator 27.7.0, SVG Export Plug-In . SVG Version: 6.00 Build 0)  -->
<svg xmlns="http://www.w3.org/2000/svg" xmlns:xlink="http://www.w3.org/1999/xlink" version="1.1" id="Layer_1" x="0px" y="0px" viewBox="0 0 110 110" style="enable-background:new 0 0 110 110;" xml:space="preserve">
<style type="text/css">
	.st0{fill:none;stroke:url(#SVGID_1_);stroke-width:3;stroke-miterlimit:10;}
	.st1{fill:#808080;}
</style>
<g>
	<linearGradient id="SVGID_1_" gradientUnits="userSpaceOnUse" x1="1.0534" y1="53.9318" x2="108.9466" y2="56.0682">
		<stop offset="1.117318e-02" style="stop-color:#D53C85"></stop>
		<stop offset="0.4944" style="stop-color:#EFB34D"></stop>
		<stop offset="1" style="stop-color:#5FB5AD"></stop>
	</linearGradient>
	<path class="st0" d="M69.6,107.2H40.4c-20.7,0-37.6-16.9-37.6-37.6V40.4c0-20.7,16.9-37.6,37.6-37.6h29.2   c20.7,0,37.6,16.9,37.6,37.6v29.2C107.2,90.3,90.3,107.2,69.6,107.2z"></path>
	<g>
		<g>
			<path class="st1" d="M40.5,43.5c-0.2,0-0.3-0.1-0.5-0.2c-0.3-0.3-0.3-0.7-0.1-1c3.5-4.1,8.5-6.5,13.8-6.9     c8.3-0.5,13.9,4.5,14.9,5.5c0.3,0.3,0.3,0.8,0,1.1c-0.3,0.3-0.8,0.3-1.1,0c-0.9-0.9-6.1-5.6-13.8-5.1c-5,0.3-9.5,2.6-12.8,6.4     C40.9,43.4,40.7,43.5,40.5,43.5z"></path>
			<path class="st1" d="M39.2,51.4c-0.1,0-0.3,0-0.4-0.1c-0.4-0.2-0.5-0.7-0.3-1c1.4-2.3,6.6-10,15.1-10.7     c8.8-0.7,14.7,6.4,16.3,8.6c0.2,0.3,0.2,0.8-0.2,1c-0.3,0.2-0.8,0.2-1-0.2c-1.5-2-7-8.7-15-8c-7.8,0.7-12.7,7.8-14,10     C39.7,51.3,39.5,51.4,39.2,51.4z"></path>
			<path class="st1" d="M69.1,69.8c-0.2,0-0.3-0.1-0.5-0.2c-1.6-1.4-2.7-3.2-3.2-5.2c-0.5-2,0-3.4,0.4-4.8c0.3-1.1,0.7-2.2,0.6-3.6     c-0.1-3.6-2-6.9-4.9-9c-0.4-0.3-4.3-2.8-9.1-1.7c-0.7,0.2-4.1,1.1-6.3,4c-0.4,0.5-0.7,1-1,1.6c-0.4,0.8-0.9,1.6-1.9,2.8     c-1,1.2-2.1,2.2-3.3,3.1c-0.3,0.2-0.8,0.2-1-0.2c-0.2-0.3-0.2-0.8,0.2-1c1.1-0.8,2.1-1.8,3-2.9c0.9-1.1,1.3-1.8,1.8-2.6     c0.3-0.6,0.6-1.1,1.1-1.8c2.4-3.2,6.1-4.2,7.1-4.5c5.4-1.3,9.8,1.5,10.3,1.9c3.3,2.3,5.4,6.1,5.6,10.2c0,1.7-0.4,3-0.7,4.1     c-0.4,1.3-0.8,2.4-0.4,4c0.4,1.7,1.4,3.2,2.7,4.4c0.3,0.3,0.3,0.7,0.1,1C69.5,69.7,69.3,69.8,69.1,69.8z"></path>
			<path class="st1" d="M66.7,72.8c-0.1,0-0.3,0-0.4-0.1c-1.7-1-3-2.5-4-4.2c-1.6-3.1-1.1-6.1-0.6-8.8c0.5-2.6,0.8-4.8-0.5-7     c-1.4-2-3.7-3.3-6.2-3.5c-1.8,0-3.6,0.5-5,1.6c-1.3,1-1.9,2-2.7,3.3c-0.5,0.8-1,1.7-1.7,2.8c-1.6,2.2-3.5,4.2-5.8,5.7     c-0.3,0.2-0.8,0.2-1-0.2s-0.2-0.8,0.2-1c2.1-1.5,3.9-3.3,5.4-5.4c0.7-1,1.2-1.9,1.6-2.7c0.8-1.4,1.5-2.6,3.1-3.8     c1.7-1.3,3.8-1.9,5.9-1.9c3,0.2,5.7,1.7,7.3,4.2c1.7,2.7,1.2,5.4,0.7,8c-0.4,2.5-0.9,5.1,0.5,7.8c0.8,1.5,2,2.8,3.5,3.7     c0.3,0.2,0.5,0.7,0.2,1C67.2,72.6,67,72.8,66.7,72.8z"></path>
			<path class="st1" d="M44.8,75.3c-0.2,0-0.5-0.1-0.6-0.3c-0.2-0.3-0.1-0.8,0.2-1c6.1-4.2,10.4-8.6,12.9-13.2     c1.6-3,1.4-4.3,1.1-5.1c-0.8-1.4-2.3-2.2-3.9-2c-1.7,0.2-2.8,1.9-4,3.7c-0.2,0.3-0.4,0.6-0.6,0.9c-2.5,3.8-6,7.1-10.4,10     c-0.3,0.2-0.8,0.1-1-0.2c-0.2-0.3-0.1-0.8,0.2-1c4.2-2.7,7.6-6,10-9.6c0.2-0.3,0.4-0.6,0.6-0.9c1.3-2,2.6-4.1,5-4.4     c2.2-0.2,4.3,0.8,5.4,2.8c0.8,1.7,0.5,3.6-1.1,6.5c-2.6,4.8-7.1,9.5-13.4,13.8C45.1,75.3,44.9,75.3,44.8,75.3z"></path>
			<path class="st1" d="M40.6,72.8c-0.2,0-0.5-0.1-0.6-0.3c-0.2-0.3-0.1-0.8,0.2-1c3.5-2.3,6.7-5.1,9.6-8.3c1.7-1.9,3.3-4,4.7-6.2     c0.2-0.3,0.7-0.4,1-0.2c0.3,0.2,0.4,0.7,0.2,1c-1.5,2.2-3.1,4.4-4.9,6.4c-2.9,3.2-6.2,6.1-9.9,8.5C40.8,72.7,40.7,72.8,40.6,72.8     z"></path>
			<path class="st1" d="M70,65.5c-0.1,0-0.2,0-0.2,0c-0.4-0.1-0.6-0.6-0.5-0.9c1.4-4.2,1.2-8.7-0.5-12.8c-0.2-0.4,0-0.8,0.4-1     c0.4-0.2,0.8,0,1,0.4c1.9,4.4,2.1,9.3,0.6,13.9C70.6,65.3,70.3,65.5,70,65.5z"></path>
			<path class="st1" d="M61.6,76c-0.1,0-0.2,0-0.3-0.1c-1.9-1-3.3-2.8-3.9-4.8c-0.4-1.7-0.3-3.5,0.3-5c0.2-0.4,0.6-0.6,1-0.4     c0.4,0.2,0.6,0.6,0.4,1c-0.5,1.3-0.6,2.7-0.3,4.1c0.5,1.6,1.6,3.1,3.2,3.9c0.4,0.2,0.5,0.6,0.3,1C62.2,75.9,61.9,76,61.6,76z"></path>
			<path class="st1" d="M56.7,77.7c-0.3,0-0.7-0.2-0.7-0.6c-0.4-1.9-1.3-3.3-2.2-3.4c-0.6-0.1-1.2,0.3-2.3,1l-0.1,0.1     c-0.8,0.5-1.4,1-2.1,1.7c-0.3,0.3-0.8,0.3-1.1,0c-0.3-0.3-0.3-0.8,0-1.1c0.7-0.7,1.5-1.3,2.3-1.9l0.1-0.1     c1.2-0.7,2.1-1.3,3.2-1.2c1.6,0.2,2.9,2,3.5,4.6c0.1,0.4-0.2,0.8-0.6,0.9C56.8,77.7,56.7,77.7,56.7,77.7z"></path>
		</g>
	</g>
</g>
</svg>
