<?xml version="1.0" encoding="UTF-8"?>
<!-- Generator: Adobe Illustrator 27.7.0, SVG Export Plug-In . SVG Version: 6.00 Build 0)  -->
<svg xmlns="http://www.w3.org/2000/svg" xmlns:xlink="http://www.w3.org/1999/xlink" version="1.1" id="Layer_1" x="0px" y="0px" viewBox="0 0 110 110" style="enable-background:new 0 0 110 110;" xml:space="preserve">
<style type="text/css">
	.st0{fill:none;stroke:url(#SVGID_1_);stroke-width:3;stroke-miterlimit:10;}
	.st1{fill:#808080;}
</style>
<g>
	<linearGradient id="SVGID_1_" gradientUnits="userSpaceOnUse" x1="1.0534" y1="53.9318" x2="108.9466" y2="56.0682">
		<stop offset="1.117318e-02" style="stop-color:#D53C85"></stop>
		<stop offset="0.4944" style="stop-color:#EFB34D"></stop>
		<stop offset="1" style="stop-color:#5FB5AD"></stop>
	</linearGradient>
	<path class="st0" d="M69.6,107.2H40.4c-20.7,0-37.6-16.9-37.6-37.6V40.4c0-20.7,16.9-37.6,37.6-37.6h29.2   c20.7,0,37.6,16.9,37.6,37.6v29.2C107.2,90.3,90.3,107.2,69.6,107.2z"></path>
	<g>
		<g>
			<path class="st1" d="M70,40.8h-3.6v-1c0-1.2-1-2.2-2.2-2.2h-0.4c-1.2,0-2.2,1-2.2,2.2v1H47.6v-1c0-1.2-1-2.2-2.2-2.2h-0.4     c-1.2,0-2.2,1-2.2,2.2v1h-3.6c-1.9,0-3.5,1.6-3.5,3.5v27.5c0,1.9,1.6,3.5,3.5,3.5H70c1.9,0,3.5-1.6,3.5-3.5V44.3     C73.5,42.4,71.9,40.8,70,40.8z M63.3,39.8c0-0.3,0.2-0.5,0.5-0.5h0.4c0.3,0,0.5,0.2,0.5,0.5v4.3c0,0.3-0.2,0.5-0.5,0.5h-0.4     c-0.3,0-0.5-0.2-0.5-0.5V39.8z M44.5,39.8c0-0.3,0.2-0.5,0.5-0.5h0.4c0.3,0,0.5,0.2,0.5,0.5v4.3c0,0.3-0.2,0.5-0.5,0.5h-0.4     c-0.3,0-0.5-0.2-0.5-0.5V39.8z M39.3,42.4h3.6v1.7c0,1.2,1,2.2,2.2,2.2h0.4c1.2,0,2.2-1,2.2-2.2v-1.7h14.1v1.7     c0,1.2,1,2.2,2.2,2.2h0.4c1.2,0,2.2-1,2.2-2.2v-1.7H70c1,0,1.9,0.8,1.9,1.9v5.2H37.4v-5.2C37.4,43.3,38.3,42.4,39.3,42.4z      M70,73.7H39.3c-1,0-1.9-0.8-1.9-1.9V51.1h34.4v20.7C71.9,72.9,71,73.7,70,73.7z"></path>
			<path class="st1" d="M59.3,53.8c-1.6,0-3.2,0.7-4.6,2c-1.4-1.3-3-2.1-4.6-2.1c-2.3,0-4.2,1.5-4.8,3.8c-0.9,3.4,0.9,8.7,9,13.4     l0.4,0.2l0.4-0.2c8-4.7,9.9-10,9-13.4C63.4,55.3,61.5,53.8,59.3,53.8z M54.6,69.3c-6.9-4.2-8.6-8.6-7.8-11.3     c0.4-1.6,1.7-2.6,3.2-2.6c1.3,0,2.8,0.8,4,2.1l0.6,0.7l0.6-0.7c1.2-1.4,2.7-2.1,4-2.1c1.5,0,2.8,1,3.2,2.6     C63.2,60.6,61.5,65.1,54.6,69.3z"></path>
		</g>
	</g>
</g>
</svg>
