<?xml version="1.0" encoding="UTF-8"?>
<!-- Generator: Adobe Illustrator 27.7.0, SVG Export Plug-In . SVG Version: 6.00 Build 0)  -->
<svg xmlns="http://www.w3.org/2000/svg" xmlns:xlink="http://www.w3.org/1999/xlink" version="1.1" id="Layer_1" x="0px" y="0px" viewBox="0 0 110 110" style="enable-background:new 0 0 110 110;" xml:space="preserve">
<style type="text/css">
	.st0{fill:none;stroke:url(#SVGID_1_);stroke-width:3;stroke-miterlimit:10;}
	.st1{fill:#808080;}
</style>
<g>
	<linearGradient id="SVGID_1_" gradientUnits="userSpaceOnUse" x1="1.0534" y1="53.9318" x2="108.9466" y2="56.0682">
		<stop offset="1.117318e-02" style="stop-color:#D53C85"></stop>
		<stop offset="0.4944" style="stop-color:#EFB34D"></stop>
		<stop offset="1" style="stop-color:#5FB5AD"></stop>
	</linearGradient>
	<path class="st0" d="M69.6,107.2H40.4c-20.7,0-37.6-16.9-37.6-37.6V40.4c0-20.7,16.9-37.6,37.6-37.6h29.2   c20.7,0,37.6,16.9,37.6,37.6v29.2C107.2,90.3,90.3,107.2,69.6,107.2z"></path>
	<path class="st1" d="M55,34.8L55,34.8c-7.8,0-14,6.2-14,13.9c0,1.9,0.4,3.7,1.1,5.4c0.7,1.7,1.7,3.1,3,4.4c0.6,0.6,1.3,1.2,2.1,1.7   c1.3,0.9,2,2.1,2,3.7v2.7c0,0,0,0,0,0v3.9c0,3.1,2.6,5.7,5.8,5.7c3.2,0,5.8-2.5,5.8-5.7v-6.6c0,0,0-0.1,0-0.1   c0-2.2,1.6-3.2,2.2-3.6c0.7-0.5,1.4-1.1,2.1-1.7c1.3-1.3,2.3-2.8,3-4.4c0.7-1.7,1.1-3.5,1.1-5.4C69,41.1,62.7,34.9,55,34.8z    M59.3,67.3v3.2c0,2.4-1.9,4.3-4.4,4.3c-2.5,0-4.4-1.9-4.4-4.3v-3.2H59.3z M59.3,64v1.9h-3.6v-6c1.3-0.3,2.2-1.3,2.2-2.5   c0-0.5,0.1-0.9,0.3-1.3c0.2-0.4,0.4-0.8,0.7-1.1c0.1-0.1,0.2-0.2,0.3-0.2c0.2,0.1,0.4,0.1,0.5,0.1c0.7,0,1.3-0.6,1.3-1.3   c0-0.7-0.6-1.3-1.3-1.3c-0.7,0-1.2,0.5-1.3,1.2c-0.2,0.1-0.4,0.3-0.5,0.5c-0.4,0.4-0.8,0.9-1,1.5c-0.2,0.6-0.4,1.2-0.4,1.8   c0,0.5-0.6,1.1-1.6,1.1c-1,0-1.5-0.6-1.6-1.1l0,0c0-1.7-0.9-3.2-2.3-4.1c0.3-0.2,0.5-0.4,0.7-0.6c0.1-0.1,0.3-0.3,0.4-0.5   c0.1,0.1,0.1,0.2,0.2,0.3c0.1,0.2,0.2,0.3,0.4,0.4c0.2,0.1,0.4,0,0.5,0c0.3-0.2,0.5-0.6,0.3-0.9c-0.4-0.9-1.2-1.5-2.1-1.8   c-0.1,0-0.1,0-0.2,0c-0.4,0-0.7,0.3-0.7,0.7c0,0.3,0.2,0.5,0.5,0.6c-0.1,0.1-0.2,0.2-0.3,0.3c-0.6,0.6-1.4,0.9-2.2,0.9   c-1.7,0-3.1-1.4-3.1-3.1c0-0.4,0.1-0.8,0.2-1.2c0.2-0.4,0.4-0.7,0.7-1c0.3-0.3,0.6-0.5,1-0.7c0,0,0,0,0,0c0,0.1,0,0.3,0.1,0.4   c0.2,0.9,0.8,1.6,1.6,2.1c0.4,0.2,0.8,0.4,1.3,0.4c0.2,0,0.4,0,0.5-0.1c0.1-0.1,0.2-0.3,0.3-0.5c0.1-0.4-0.2-0.7-0.6-0.8   c-0.1,0-0.3-0.1-0.4-0.1c0,0,0,0,0,0c0.8-0.4,1.2-1.3,1-2.2c-0.1-0.4-0.3-0.8-0.7-1c-0.1-0.1-0.3-0.1-0.4-0.2   c-0.2,0-0.4,0.1-0.5,0.2c-0.1,0.1-0.2,0.3-0.2,0.5c0,0.2,0.1,0.4,0.3,0.5c0.1,0.1,0.1,0.2,0.2,0.3c0.1,0.2-0.1,0.5-0.3,0.7   c-0.2,0.1-0.5,0.1-0.6,0c0-0.1,0-0.1-0.1-0.2c-0.1-0.5-0.1-1.1,0.2-1.6c0.3-0.5,0.7-0.8,1.3-1c0.3-0.1,0.5-0.1,0.8-0.1   c0.3,0,0.5,0.1,0.8,0.3c0.2,0.1,0.4,0.3,0.6,0.5c0.1,0.1,0.2,0.2,0.2,0.3c0.2,0.3,0.6,0.5,0.9,0.3c0.3-0.2,0.5-0.6,0.3-1   c-0.1-0.2-0.2-0.4-0.3-0.5c0.5-0.3,1-0.3,1.5-0.2c0.6,0.2,1.1,0.6,1.4,1.3l0,0l0,0c0.1,0.3,0.2,0.6,0.1,0.9   c-0.1,0.2-0.2,0.4-0.3,0.5c-0.3,0.2-0.4,0.6-0.3,0.9c0.2,0.3,0.6,0.4,0.9,0.3c0.5-0.3,0.9-0.8,1-1.4c0.1-0.6,0.1-1.2-0.2-1.7l0,0   c0-0.1-0.1-0.1-0.1-0.2c0.2,0,0.4,0,0.5,0c1.5,0,2.8,1.1,3.1,2.5c-0.3,0-0.6,0.1-0.8,0.2c-0.1,0-0.1,0-0.1,0.1c0,0-0.1,0.1-0.1,0.1   c-0.1,0-0.1,0.1-0.2,0.1c-0.2,0-0.3-0.2-0.3-0.5c0-0.1,0.1-0.2,0.1-0.3c0.1-0.1,0.2-0.3,0.3-0.5c0-0.2,0-0.4-0.1-0.5   c-0.1-0.2-0.3-0.3-0.6-0.3c0,0,0,0,0,0c-0.2,0-0.3,0.1-0.4,0.1c-0.4,0.3-0.6,0.7-0.7,1.2c-0.1,1,0.5,1.9,1.5,2   c0.4,0.1,0.9,0,1.2-0.3c0.4-0.2,0.9-0.2,1.3,0c0.9,0.4,1.4,1.4,1,2.3c-0.1,0.2-0.2,0.3-0.3,0.5c-0.2-0.1-0.4-0.1-0.6-0.1   c-0.7,0-1.3,0.6-1.3,1.3c0,0.7,0.6,1.3,1.3,1.3c0.6,0,1.2-0.5,1.2-1.1c0.4-0.3,0.7-0.8,0.9-1.3c0.6-1.6-0.2-3.5-1.8-4.1   c0,0-0.1,0-0.1,0c-0.2-2.3-2.2-4.1-4.5-4.1c-0.5,0-1,0.1-1.4,0.2c-0.4-0.3-0.8-0.6-1.3-0.7c-0.5-0.1-1.1-0.1-1.6,0   c-0.5,0.1-0.9,0.3-1.3,0.6c-0.4-0.2-0.8-0.3-1.2-0.4c-0.5-0.1-0.9,0-1.4,0.1c-1.1,0.3-2.1,1.2-2.4,2.3c-0.2,0.1-0.5,0.1-0.7,0.2   c-0.5,0.2-1,0.5-1.4,1c-0.4,0.4-0.7,0.9-1,1.4c-0.2,0.6-0.4,1.1-0.4,1.7c0,2.5,2,4.5,4.5,4.5c0,0,0.1,0,0.1,0   c1.8,0,3.4,1.5,3.4,3.3c0,1.2,0.9,2.2,2.2,2.4v6h-3.8v-2c0-2.8-1.8-4.3-2.6-4.8c-0.7-0.4-1.3-1-1.9-1.5c-1.2-1.1-2.1-2.5-2.7-4   c-0.7-1.5-1-3.2-1-4.9c0-6.8,5.5-12.4,12.4-12.5H55c6.9,0,12.6,5.6,12.6,12.5c0,1.7-0.3,3.3-1,4.9h0c-0.6,1.5-1.5,2.8-2.7,4   c-0.6,0.6-1.2,1.1-1.9,1.5c-1.8,1.2-2.8,2.9-2.8,4.8C59.3,63.9,59.3,64,59.3,64z"></path>
</g>
</svg>
