<?xml version="1.0" encoding="UTF-8"?>
<!-- Generator: Adobe Illustrator 27.7.0, SVG Export Plug-In . SVG Version: 6.00 Build 0)  -->
<svg xmlns="http://www.w3.org/2000/svg" xmlns:xlink="http://www.w3.org/1999/xlink" version="1.1" id="Layer_1" x="0px" y="0px" viewBox="0 0 110 110" style="enable-background:new 0 0 110 110;" xml:space="preserve">
<style type="text/css">
	.st0{fill:none;stroke:url(#SVGID_1_);stroke-width:3;stroke-miterlimit:10;}
	.st1{fill:#808080;}
</style>
<g>
	<linearGradient id="SVGID_1_" gradientUnits="userSpaceOnUse" x1="1.0534" y1="53.9318" x2="108.9466" y2="56.0682">
		<stop offset="1.117318e-02" style="stop-color:#D53C85"></stop>
		<stop offset="0.4944" style="stop-color:#EFB34D"></stop>
		<stop offset="1" style="stop-color:#5FB5AD"></stop>
	</linearGradient>
	<path class="st0" d="M69.6,107.2H40.4c-20.7,0-37.6-16.9-37.6-37.6V40.4c0-20.7,16.9-37.6,37.6-37.6h29.2   c20.7,0,37.6,16.9,37.6,37.6v29.2C107.2,90.3,90.3,107.2,69.6,107.2z"></path>
	<path class="st1" d="M56.9,39.3l-17.8,8.5V65l17.8,8.5L74.7,65V47.8L56.9,39.3z M72.2,48.2L56.9,55l-15.4-6.8l15.4-7.3L72.2,48.2z    M40.6,49.5l15.6,6.9v15.2l-15.6-7.4V49.5z M57.6,71.5V56.3l15.6-6.9v14.7L57.6,71.5z"></path>
</g>
</svg>
