<?xml version="1.0" encoding="UTF-8"?>
<!-- Generator: Adobe Illustrator 27.7.0, SVG Export Plug-In . SVG Version: 6.00 Build 0)  -->
<svg xmlns="http://www.w3.org/2000/svg" xmlns:xlink="http://www.w3.org/1999/xlink" version="1.1" id="Layer_1" x="0px" y="0px" viewBox="0 0 110 110" style="enable-background:new 0 0 110 110;" xml:space="preserve">
<style type="text/css">
	.st0{fill:none;stroke:url(#SVGID_1_);stroke-width:3;stroke-miterlimit:10;}
	.st1{fill:#808080;}
</style>
<g>
	<g>
		<linearGradient id="SVGID_1_" gradientUnits="userSpaceOnUse" x1="1.0534" y1="53.9318" x2="108.9466" y2="56.0682">
			<stop offset="1.117318e-02" style="stop-color:#D53C85"></stop>
			<stop offset="0.4944" style="stop-color:#EFB34D"></stop>
			<stop offset="1" style="stop-color:#5FB5AD"></stop>
		</linearGradient>
		<path class="st0" d="M69.6,107.2H40.4c-20.7,0-37.6-16.9-37.6-37.6V40.4c0-20.7,16.9-37.6,37.6-37.6h29.2    c20.7,0,37.6,16.9,37.6,37.6v29.2C107.2,90.3,90.3,107.2,69.6,107.2z"></path>
	</g>
	<g>
		<path class="st1" d="M55,44.6c-4.2,0-7.7,3.4-7.7,7.7S50.8,60,55,60s7.7-3.4,7.7-7.7S59.2,44.6,55,44.6z M55,58.5    c-3.4,0-6.2-2.8-6.2-6.2c0-3.4,2.8-6.2,6.2-6.2c3.4,0,6.2,2.8,6.2,6.2C61.2,55.7,58.4,58.5,55,58.5z"></path>
		<path class="st1" d="M70,39H48.8v-3c0-1.1-0.9-2-2-2h-5.1c-1.1,0-2,0.9-2,2v3c-2.3,0.1-4.2,2.1-4.2,4.4v17.7c0,2.5,2,4.5,4.5,4.5    h5.8c0.1,2.3,1.2,4.4,3,5.8l-3.7,7.3h1.7l3.3-6.4c1.2,0.7,2.6,1.1,4.2,1.2v5.2h1.5v-5.2c1.5-0.1,2.9-0.5,4.2-1.2l3,6.4h1.7    l-3.4-7.3c1.8-1.4,3-3.5,3-5.8H70c2.5,0,4.5-2,4.5-4.5V43.5C74.4,41,72.4,39,70,39z M41.3,36c0-0.3,0.2-0.5,0.5-0.5h5.1    c0.3,0,0.5,0.2,0.5,0.5v3h-6V36z M55,72c-4.2,0-7.6-2.9-7.7-6.4h15.4C62.6,69.2,59.2,72,55,72z M72.9,61.1c0,1.6-1.3,2.9-2.9,2.9    H40c-1.6,0-2.9-1.3-2.9-2.9V43.5c0-1.6,1.3-2.9,2.9-2.9h30c1.6,0,2.9,1.3,2.9,2.9V61.1z"></path>
	</g>
</g>
</svg>
