<?xml version="1.0" encoding="UTF-8"?>
<!-- Generator: Adobe Illustrator 27.7.0, SVG Export Plug-In . SVG Version: 6.00 Build 0)  -->
<svg xmlns="http://www.w3.org/2000/svg" xmlns:xlink="http://www.w3.org/1999/xlink" version="1.1" id="Layer_1" x="0px" y="0px" viewBox="0 0 110 110" style="enable-background:new 0 0 110 110;" xml:space="preserve">
<style type="text/css">
	.st0{fill:none;stroke:url(#SVGID_1_);stroke-width:3;stroke-miterlimit:10;}
	.st1{fill:#808080;}
</style>
<g>
	<linearGradient id="SVGID_1_" gradientUnits="userSpaceOnUse" x1="1.0534" y1="53.9318" x2="108.9466" y2="56.0682">
		<stop offset="1.117318e-02" style="stop-color:#D53C85"></stop>
		<stop offset="0.4944" style="stop-color:#EFB34D"></stop>
		<stop offset="1" style="stop-color:#5FB5AD"></stop>
	</linearGradient>
	<path class="st0" d="M69.6,107.2H40.4c-20.7,0-37.6-16.9-37.6-37.6V40.4c0-20.7,16.9-37.6,37.6-37.6h29.2   c20.7,0,37.6,16.9,37.6,37.6v29.2C107.2,90.3,90.3,107.2,69.6,107.2z"></path>
	<g>
		<g>
			<path class="st1" d="M43.2,75.1c0.1,0,0.2,0.1,0.3,0.1c0.2,0,0.4-0.1,0.5-0.2l8.5-7.2h19.1c1.8,0,3.3-1.5,3.3-3.3V41.2     c0-1.8-1.5-3.3-3.3-3.3H38.4c-1.8,0-3.3,1.5-3.3,3.3v23.3c0,1.8,1.5,3.3,3.3,3.3h4.3v6.5C42.7,74.7,42.9,75,43.2,75.1z      M38.4,66.1c-0.9,0-1.7-0.7-1.7-1.7V41.2c0-0.9,0.7-1.7,1.7-1.7h33.2c0.9,0,1.7,0.7,1.7,1.7v23.3c0,0.9-0.7,1.7-1.7,1.7H52.2     c-0.2,0-0.4,0.1-0.5,0.2l-7.3,6.2V67c0-0.5-0.4-0.8-0.8-0.8H38.4z"></path>
			<path class="st1" d="M47.8,57.9h2.3L60.7,64c0.1,0.1,0.3,0.1,0.4,0.1c0.1,0,0.3,0,0.4-0.1c0.3-0.1,0.4-0.4,0.4-0.7V57     c1.9-0.4,3.4-2.1,3.4-4.2c0-2.1-1.5-3.8-3.4-4.2v-6.3c0-0.3-0.2-0.6-0.4-0.7c-0.3-0.1-0.6-0.1-0.8,0l-10.6,6.2h-2.3     c-1.3,0-2.6,0.5-3.6,1.5c-0.9,0.9-1.5,2.2-1.5,3.6C42.8,55.6,45.1,57.9,47.8,57.9z M63.7,52.8c0,1.1-0.7,2.1-1.8,2.4v-4.9     C62.9,50.7,63.7,51.7,63.7,52.8z M60.2,61.9l-9.1-5.3v-7.5l9.1-5.3V61.9z M45.4,50.4c0.6-0.6,1.5-1,2.4-1h1.7v6.7h-1.7     c-1.9,0-3.4-1.5-3.4-3.4C44.5,51.9,44.8,51.1,45.4,50.4z"></path>
		</g>
	</g>
</g>
</svg>
