<?xml version="1.0" encoding="UTF-8"?>
<!-- Generator: Adobe Illustrator 27.7.0, SVG Export Plug-In . SVG Version: 6.00 Build 0)  -->
<svg xmlns="http://www.w3.org/2000/svg" xmlns:xlink="http://www.w3.org/1999/xlink" version="1.1" id="Layer_1" x="0px" y="0px" viewBox="0 0 110 110" style="enable-background:new 0 0 110 110;" xml:space="preserve">
<style type="text/css">
	.st0{fill:none;stroke:url(#SVGID_1_);stroke-width:3;stroke-miterlimit:10;}
	.st1{fill:#808080;}
</style>
<g>
	<linearGradient id="SVGID_1_" gradientUnits="userSpaceOnUse" x1="1.0534" y1="53.9318" x2="108.9466" y2="56.0682">
		<stop offset="1.117318e-02" style="stop-color:#D53C85"></stop>
		<stop offset="0.4944" style="stop-color:#EFB34D"></stop>
		<stop offset="1" style="stop-color:#5FB5AD"></stop>
	</linearGradient>
	<path class="st0" d="M69.6,107.2H40.4c-20.7,0-37.6-16.9-37.6-37.6V40.4c0-20.7,16.9-37.6,37.6-37.6h29.2   c20.7,0,37.6,16.9,37.6,37.6v29.2C107.2,90.3,90.3,107.2,69.6,107.2z"></path>
	<g>
		<path class="st1" d="M76.2,57.2l0-10.2c0.2-1.5-0.5-3-1.8-3.8c-1.4-0.6-3-0.3-4.1,0.7l-5.2,3.6c0,0,0,0,0,0.1c0,0-0.1,0.1-0.1,0.1    c0,0-0.1,0.1-0.1,0.1c0,0,0,0.1-0.1,0.1c0,0.1,0,0.1,0,0.2c0,0,0,0.1,0,0.1l0,9.7c0,5.3-1.6,6.9-6.9,6.9H46.2    c-6,0-6.9-4.4-6.9-6.9V46.3c0-2.8,0.4-4.5,1.5-5.5c1-1,2.7-1.5,5.5-1.5h11.7c3.3,0,5.1,0.6,6,2.1c0.2,0.3,0.3,0.6,0.4,1    c0.1,0.2,0.2,0.4,0.4,0.5c0.2,0.1,0.4,0.1,0.6,0c0.4-0.1,0.7-0.6,0.5-1.1c-0.2-0.5-0.4-0.9-0.6-1.3c-1.6-2.6-4.8-2.9-7.4-2.9H46.2    c-6.3,0-8.6,2.3-8.6,8.6v11.6c0,5.4,3.2,8.6,8.6,8.6h4l-5.9,7.1c-0.2,0.2-0.2,0.4-0.2,0.6c0,0.2,0.1,0.4,0.3,0.6    c0.2,0.1,0.4,0.2,0.6,0.2c0.2,0,0.4-0.1,0.6-0.3l6.5-7.7l6.4,7.7c0.1,0.2,0.3,0.3,0.6,0.3c0.2,0,0.4,0,0.6-0.2    c0.4-0.3,0.4-0.8,0.1-1.2l-6-7.1h4c6.3,0,8.6-2.3,8.6-8.6v-0.3l3.8,2.7c0.8,0.6,1.8,1,2.8,1c0,0,0,0,0,0c0.5,0,0.9-0.1,1.3-0.3    C75.7,60.2,76.4,58.7,76.2,57.2z M74.6,57.2c0,1.1-0.3,2-0.9,2.3c-0.2,0.1-0.4,0.1-0.6,0.1c-0.5,0-1.1-0.2-1.8-0.7l-4.8-3.3v-6.8    l0.1,0l4.7-3.3c0.9-0.7,1.8-0.9,2.4-0.6c0.6,0.3,0.9,1.1,0.9,2.3V57.2z"></path>
		<path class="st1" d="M58.5,45.8c-0.7-0.7-1.6-1.1-2.6-1.1c-2,0-3.6,1.6-3.6,3.6c0,1,0.4,1.9,1.1,2.6c0.7,0.7,1.6,1.1,2.6,1.1    c0,0,0,0,0,0c1,0,1.9-0.4,2.6-1.1c0.7-0.7,1.1-1.6,1.1-2.6C59.6,47.4,59.2,46.5,58.5,45.8z M57.9,48.3    C57.9,48.3,57.9,48.3,57.9,48.3C57.9,48.3,57.9,48.3,57.9,48.3C57.9,48.4,57.9,48.4,57.9,48.3c0,0.2,0,0.3,0,0.4c0,0,0,0,0,0.1    c0,0.1-0.1,0.2-0.1,0.3c0,0,0,0,0,0c-0.1,0.2-0.2,0.4-0.4,0.6c-0.2,0.2-0.4,0.3-0.6,0.4c0,0,0,0-0.1,0c-0.1,0-0.2,0.1-0.3,0.1    c0,0-0.1,0-0.1,0c-0.1,0-0.3,0-0.4,0c0,0,0,0,0,0c-0.1,0-0.3,0-0.4,0c0,0,0,0,0,0c-0.1,0-0.2-0.1-0.3-0.1c0,0,0,0,0,0    c-0.2-0.1-0.4-0.2-0.6-0.4c-0.3-0.3-0.4-0.6-0.5-1c0,0,0,0,0,0c0-0.1,0-0.3,0-0.4c0,0,0,0,0,0c0,0,0,0,0,0v0c0,0,0,0,0-0.1    c0-0.1,0-0.2,0-0.3c0,0,0,0,0,0c0.1-0.4,0.3-0.7,0.5-1c0.4-0.4,0.9-0.6,1.4-0.6c0,0,0,0,0,0s0,0,0,0c0.5,0,1,0.2,1.4,0.6    c0.3,0.3,0.4,0.6,0.5,1c0,0,0,0,0,0C57.9,48.1,57.9,48.2,57.9,48.3C57.9,48.3,57.9,48.3,57.9,48.3L57.9,48.3z"></path>
	</g>
</g>
</svg>
